*******************************************************************************
                     Death of a Ghost Hunter (2007) WEBRip
*******************************************************************************

-------------------------------------------------------------------------------
                              General Information
-------------------------------------------------------------------------------
Type.................: Movie



Video Format.........: AVI
Video Bitrate........: 1123
Resolution...........: 640 x 480
Color................: 8 bit
FPS..................: 24.000
Source...............: WEB 4:3
Original Format......: NTSC
Genre................: Horror
IMDb Rating..........: 4.5
Movie Information....: http://www.imdb.com/title/tt1160317/

-------------------------------------------------------------------------------
                               Post Information
-------------------------------------------------------------------------------
Posted by............: RadioResearch
Posted on............: 4/26/2013

-------------------------------------------------------------------------------
                                 Release Notes
-------------------------------------------------------------------------------
SEEDBOX SUPPORTED!!

Renowned "ghost hunter", Carter Simms is paid to conduct a paranormal 
investigation of a supposedly haunted house. Along with a cameraman, a reporter, 
and a spiritual advocate, she embarks on a three night journey into terror.

Enjoy!

RadioResearch

General
Complete name                            : G:Death of a Ghost Hunter (2007) 
WEBRipDeath of a Ghost Hunter.avi
Format                                   : AVI
Format/Info                              : Audio Video Interleave
File size                                : 850 MiB
Duration                                 : 1h 45mn
Overall bit rate                         : 1 123 Kbps

Video
ID                                       : 0
Format                                   : mp43
Codec ID                                 : mp43
Duration                                 : 1h 45mn
Bit rate                                 : 983 Kbps
Width                                    : 640 pixels
Height                                   : 480 pixels
Display aspect ratio                     : 4:3
Frame rate                               : 24.000 fps
Bits/(Pixel*Frame)                       : 0.133
Stream size                              : 744 MiB (88%)

Audio
ID                                       : 1
Format                                   : MPEG Audio
Format version                           : Version 1
Format profile                           : Layer 3
Mode                                     : Joint stereo
Mode extension                           : MS Stereo
Codec ID                                 : 55
Codec ID/Hint                            : MP3
Duration                                 : 1h 45mn
Bit rate mode                            : Constant
Bit rate                                 : 128 Kbps
Channel(s)                               : 2 channels
Sampling rate                            : 44.1 KHz
Compression mode                         : Lossy
Stream size                              : 96.9 MiB (11%)
Alignment                                : Aligned on interleaves
Interleave, duration                     : 26 ms (0.63 video frame)
Writing library                          : LAME3.98.2




-------------------------------------------------------------------------------
Generated with Cool NFO Creator - http://fly.to/coolbeans
-------------------------------------------------------------------------------
